# xmcd CD database file
#
# Track frame offsets:
#	150
#	13673
#	34568
#	54438
#	68462
#	88025
#	105478
#	115795
#	124910
#	127911
#	139524
#	157274
#	174190
#	187071
#
# Disc length: 2761 seconds
#
# Revision: 0
# Processed by: cddbd v1.5.1PL0 Copyright (c) Steve Scherf et al.
# Submitted via: CDex 1.51
#
DISCID=b00ac70e
DTITLE=Dick van Altena - Moan bove de Betuwe
DYEAR=2003
DGENRE=Country
TTITLE0=Souveniers
TTITLE1=Moan bove de Betuwe
TTITLE2=Voaders hebbe geliek
TTITLE3=Piet zeik
TTITLE4=Nor de kermis toe
TTITLE5=Zondagmêrge half tien
TTITLE6=De krêjje moste lope
TTITLE7=Freek is â groot
TTITLE8=Moment
TTITLE9=De zomers van vroeger
TTITLE10=De Betuwe
TTITLE11='t kum lich goed
TTITLE12=Ik goa nor huus
TTITLE13=Eens zal de Betuwe in bloei weer staan
EXTD=YEAR: 2003
EXTT0=
EXTT1=
EXTT2=
EXTT3=
EXTT4=
EXTT5=
EXTT6=
EXTT7=
EXTT8=
EXTT9=
EXTT10=
EXTT11=
EXTT12=
EXTT13=
PLAYORDER=
